<svg xmlns="http://www.w3.org/2000/svg" width="163.201" height="20" viewBox="0 0 163.201 20">
  <g id="Group_2" data-name="Group 2" transform="translate(-885 -409)">
    <text id="Powered_by" data-name="Powered by" transform="translate(885 425)" fill="#101010" font-size="16" font-family="Inter" font-weight="600"><tspan x="0" y="0">Powered by</tspan></text>
    <g id="Simplex" transform="translate(945.666 336.742)">
      <path id="Path_1" data-name="Path 1" d="M137.059,96.776a3.381,3.381,0,0,0,1.511.24c1.8.024,2.446.456,2.446,1.487a1.3,1.3,0,0,1-.168.7,1.9,1.9,0,0,1-.624.624,2.946,2.946,0,0,1-1.607.312,3.309,3.309,0,0,1-2.422-.791.357.357,0,0,1-.1-.216c0-.192.1-.288.264-.288a.293.293,0,0,1,.216.072,2.729,2.729,0,0,0,1.99.671c1.175,0,1.847-.408,1.847-1.127a.646.646,0,0,0-.312-.647,3.382,3.382,0,0,0-1.607-.288c-1.727-.024-2.326-.408-2.326-1.367,0-1.007.935-1.655,2.35-1.655a3.173,3.173,0,0,1,2.134.7.3.3,0,0,1,.1.216.271.271,0,0,1-.264.288.405.405,0,0,1-.24-.072,2.452,2.452,0,0,0-1.7-.6,3.555,3.555,0,0,0-.743.072,2.5,2.5,0,0,0-.7.312.772.772,0,0,0-.36.719.739.739,0,0,0,.312.647m16.811.168V99.75c0,.192-.1.312-.288.312s-.288-.12-.288-.312V96.992c0-1.247-.528-1.918-1.583-1.918s-1.727.815-1.727,2.134V99.75c0,.192-.1.312-.288.312s-.288-.12-.288-.312V96.992c0-1.247-.528-1.918-1.583-1.918s-1.727.815-1.727,2.134V99.75c0,.192-.1.312-.288.312s-.264-.12-.288-.312V94.93a.291.291,0,0,1,.288-.336c.192,0,.288.12.288.336v.576h.024a1.971,1.971,0,0,1,1.8-.983,1.84,1.84,0,0,1,1.847,1.151h.024a2.078,2.078,0,0,1,1.99-1.151c1.391.024,2.086.863,2.086,2.422m7.218.384a2.266,2.266,0,1,0-2.254,2.254,2.14,2.14,0,0,0,2.254-2.254m-4.532-2.4V95.7h.024a2.682,2.682,0,0,1,.408-.5,2.921,2.921,0,0,1,.7-.432,2.5,2.5,0,0,1,1.247-.24,2.77,2.77,0,0,1,1.99.767,2.941,2.941,0,0,1,.767,2.038,3.358,3.358,0,0,1-.24,1.271,2.691,2.691,0,0,1-2.518,1.535,2.912,2.912,0,0,1-1.247-.216,2.376,2.376,0,0,1-1.079-.935h-.024v2.878c0,.192-.1.312-.288.312s-.288-.12-.288-.312V94.954a.291.291,0,0,1,.288-.336c.192,0,.264.1.264.312m7.458-2.518V99.75c0,.192-.1.312-.288.312s-.264-.12-.288-.312V92.412c0-.192.1-.312.288-.312s.288.12.288.312m2.326,4.6h4.484a2.265,2.265,0,0,0-4.484,0m4.676.528h-4.7a2.16,2.16,0,0,0,2.326,2.062,2.3,2.3,0,0,0,1.847-.839.286.286,0,0,1,.216-.12c.192,0,.288.12.288.312a.272.272,0,0,1-.072.192,2.937,2.937,0,0,1-2.278.983,3.09,3.09,0,0,1-2.134-.767,2.77,2.77,0,0,1-.791-2.038,2.946,2.946,0,0,1,.264-1.271,2.726,2.726,0,0,1,2.59-1.535,2.635,2.635,0,0,1,2.806,2.662.353.353,0,0,1-.36.36m6.4,1.99a.308.308,0,0,1,.1.24c0,.168-.12.264-.312.288a.333.333,0,0,1-.24-.12L174.9,97.688l-2.086,2.278a.3.3,0,0,1-.24.12c-.192,0-.264-.12-.288-.288a.272.272,0,0,1,.072-.192l2.134-2.254-2.038-2.182a.344.344,0,0,1-.1-.24c0-.168.12-.264.312-.288a.333.333,0,0,1,.24.12l2.014,2.206,2.014-2.23a.332.332,0,0,1,.216-.12c.192,0,.264.12.288.288a.272.272,0,0,1-.072.192L175.309,97.3l2.11,2.23Z" transform="translate(-74.98 -15.084)" fill="#101010"/>
      <g id="Group_1" data-name="Group 1" transform="translate(37.466 72.258)">
        <path id="Path_2" data-name="Path 2" d="M46.4,75.721l2.35-1.847L43.47,75.05Zm1.823.408.887-1.8-1.99,1.559C47.115,75.865,48.218,76.129,48.218,76.129Zm1.415.312V74.57l-.839,1.679.839.192Zm1.679.384-1.1-2.254v1.99Zm-6.379.024.887-.7L43.35,75.6l1.583,1.247Zm10.024.791-4.221-3.333,1.295,2.662,2.926.671Zm-11.151.1.671-.528L42.99,76.033l.815,1.7Zm3.237.767.911-1.871-1.439-.312-1.151.887C45.388,77.232,47.043,78.5,47.043,78.5Zm5.8.12,1.99-.456-2.494-.552C52.367,77.64,52.846,78.623,52.846,78.623Zm-10.384.168.887-.7-.887-1.8v2.494Zm7.746.432,2.062-.456-.624-1.295-1.415-.312C50.208,77.16,50.208,79.222,50.208,79.222Zm-1.751.384,1.175-.264V77.016l-1.079-.24-1.031,2.11Zm5.012.312,1.487-1.175-1.871.408Zm-6.475.024.743-.168-.48-.384-.264.552Zm-1.894.432,1.175-.264.528-1.055-1.871-1.463-.863.671Zm4.532.168v-.6l-.6.144Zm-7.17.408,2.062-.456-.935-1.87-1.151.887C42.463,79.534,42.463,80.949,42.463,80.949Zm-2.95.144,2.35-1.847V76.3l-2.35,4.8Zm6.091.336.336-.671-.6.144Zm8.609,0,1.1-2.254L53.71,80.421l.5,1.007Zm-14.341.1,1.99-.456v-1.1Zm11.271.192,1.87-1.463-.48-.983-2.326.528v1.175C50.208,81,51.144,81.716,51.144,81.716Zm-.935.743.48-.384-.48-.384v.767Zm-8.345.048v-.839l-1.871.408,1.871.432Zm2.9.647.528-1.055-.528-1.055-2.326.528v1.1Zm8.513.216.623-1.295-.623-1.295-1.655,1.295,1.655,1.295Zm-7.338.048-.336-.671-.264.528Zm2.374.528,1.319-1.031V81.261L48.314,80.23l-1.655.36-.743,1.487.719,1.487,1.679.384Zm-6.451.264v-1.1l-1.99-.456Zm7.77.024v-.6l-.6.456Zm6.211.5V79.414l-1.295,2.662Zm-8.585.048.48-.384-.743-.168Zm5.276.1.48-.983-1.87-1.463-.935.743v1.175C50.208,84.378,52.534,84.882,52.534,84.882Zm2.782.12-1.1-2.254-.5,1.007Zm-.36.432L53.47,84.258,53.11,85Zm-11.367.12.911-1.87-2.062-.456v1.439C42.463,84.642,43.59,85.553,43.59,85.553Zm8.777,1.007,2.494-.552-1.99-.456C52.846,85.553,52.367,86.56,52.367,86.56Zm-7.434.024L46.8,85.122l-.528-1.055L45.1,83.8l-1.031,2.11.863.671Zm5.276.456,1.415-.312.624-1.295-2.062-.456.024,2.062Zm-1.655.36,1.079-.24V84.834l-1.175-.264-.935.743L48.554,87.4Zm-2.014.456,1.415-.312-.911-1.871-1.655,1.295Zm-4.676.024V84.93l-2.35-1.847,2.35,4.8Zm.576,0,.887-1.8-.887-.7v2.494Zm.528.24,1.487-1.175-.671-.528C43.805,86.441,42.966,88.119,42.966,88.119Zm.36.456,2.47-.552-.887-.7Zm6.307,1.031V87.736l-.839.192Zm.576,0,1.1-2.254-1.1.24Zm-1.1.264-.887-1.8-1.1.24,1.99,1.559Zm1.631,0,4.245-3.309-2.926.647L50.736,89.87Zm-1.99.432L46.4,88.455,43.47,89.1Zm1.175,1.8a1.277,1.277,0,0,1-.983-.456,1.239,1.239,0,0,1-.264-.767l-5.372-1.2a.937.937,0,0,1-.336.408,1.308,1.308,0,0,1-.791.264,1.277,1.277,0,0,1-.983-.456,1.149,1.149,0,0,1-.264-.911,1.224,1.224,0,0,1,.456-.815l-2.4-4.868a.983.983,0,0,1-.264.024,1.277,1.277,0,0,1-.983-.456,1.222,1.222,0,0,1,.192-1.727,1.308,1.308,0,0,1,.791-.264.9.9,0,0,1,.264.024l2.4-4.868a.73.73,0,0,1-.192-.192,1.149,1.149,0,0,1-.264-.911,1.173,1.173,0,0,1,.456-.815,1.308,1.308,0,0,1,.791-.264,1.277,1.277,0,0,1,.983.456l.144.216,5.372-1.2a1.181,1.181,0,0,1,.48-.959,1.308,1.308,0,0,1,.791-.264,1.277,1.277,0,0,1,.983.456,1.208,1.208,0,0,1,.144,1.295l4.317,3.381a1.239,1.239,0,0,1,.767-.264,1.277,1.277,0,0,1,.983.456,1.227,1.227,0,0,1-.7,1.966v5.4a1.324,1.324,0,0,1,.7.432,1.149,1.149,0,0,1,.264.911,1.173,1.173,0,0,1-.456.815,1.308,1.308,0,0,1-.791.264,1.239,1.239,0,0,1-.767-.264l-4.317,3.381A1.27,1.27,0,0,1,49.921,92.1Z" transform="translate(-37.466 -72.1)" fill="#101010"/>
      </g>
      <path id="Path_3" data-name="Path 3" d="M162.946,93.7a1.223,1.223,0,0,0-2.446,0,1.178,1.178,0,0,0,.935,1.151v5.2c0,.192.1.312.288.312s.288-.12.288-.312v-5.2a1.178,1.178,0,0,0,.935-1.151" transform="translate(-93.529 -15.388)" fill="#101010"/>
    </g>
  </g>
</svg>
