<svg width="43" height="43" viewBox="0 0 43 43" xmlns="http://www.w3.org/2000/svg">
    <g fill-rule="nonzero" fill="none">
        <path d="M21.5 43a21.67 21.67 0 0 1-14.47-5.517A21.41 21.41 0 0 1 0 23.913L4.857 21.5 0 19.087a21.41 21.41 0 0 1 7.03-13.57c8.245-7.356 20.696-7.356 28.941 0A21.41 21.41 0 0 1 43 19.087L38.143 21.5 43 23.913a21.41 21.41 0 0 1-7.03 13.57A21.668 21.668 0 0 1 21.5 43z" fill="#2149B9"/>
        <path fill="#FFF" d="M17.385 30 21 23.764 24.604 30H28l-5.181-8.57L27.885 13h-3.362L21 19.143 17.477 13h-3.362l5.078 8.43L14 30z"/>
    </g>
</svg>
