<svg xmlns="http://www.w3.org/2000/svg" width="146.967" height="45.173" viewBox="0 0 146.967 45.173">
  <g id="Simplex" transform="translate(-37.466 -72.258)">
    <path id="Path_1" data-name="Path 1" d="M138.267,102.662a7.635,7.635,0,0,0,3.412.542c4.062.054,5.525,1.029,5.525,3.358a2.939,2.939,0,0,1-.379,1.571,4.285,4.285,0,0,1-1.408,1.408,6.654,6.654,0,0,1-3.629.7c-2.437,0-4.279-.6-5.471-1.787a.807.807,0,0,1-.217-.487c0-.433.217-.65.6-.65a.662.662,0,0,1,.487.163,6.164,6.164,0,0,0,4.5,1.517c2.654,0,4.171-.921,4.171-2.546a1.459,1.459,0,0,0-.7-1.462,7.639,7.639,0,0,0-3.629-.65c-3.9-.054-5.254-.921-5.254-3.087,0-2.275,2.112-3.737,5.308-3.737a7.166,7.166,0,0,1,4.821,1.571.686.686,0,0,1,.217.487.613.613,0,0,1-.6.65.915.915,0,0,1-.542-.162,5.538,5.538,0,0,0-3.846-1.354,8.028,8.028,0,0,0-1.679.163,5.638,5.638,0,0,0-1.571.7,1.744,1.744,0,0,0-.812,1.625,1.669,1.669,0,0,0,.7,1.462m37.969.379v6.337c0,.433-.217.7-.65.7s-.65-.271-.65-.7V103.15c0-2.817-1.192-4.333-3.575-4.333s-3.9,1.842-3.9,4.821v5.741c0,.433-.217.7-.65.7s-.65-.271-.65-.7V103.15c0-2.817-1.192-4.333-3.575-4.333s-3.9,1.842-3.9,4.821v5.741c0,.433-.217.7-.65.7s-.6-.271-.65-.7V98.491a.658.658,0,0,1,.65-.758c.433,0,.65.271.65.758v1.3h.054a4.451,4.451,0,0,1,4.062-2.221,4.157,4.157,0,0,1,4.171,2.6h.054a4.694,4.694,0,0,1,4.5-2.6c3.142.054,4.712,1.95,4.712,5.471m16.3.867A5.119,5.119,0,1,0,187.448,109a4.833,4.833,0,0,0,5.091-5.091M182.3,98.491v1.733h.054a6.057,6.057,0,0,1,.921-1.137,6.6,6.6,0,0,1,1.571-.975,5.648,5.648,0,0,1,2.817-.542,6.256,6.256,0,0,1,4.5,1.733,6.643,6.643,0,0,1,1.733,4.6,7.585,7.585,0,0,1-.542,2.871,6.078,6.078,0,0,1-5.687,3.467,6.577,6.577,0,0,1-2.817-.487,5.367,5.367,0,0,1-2.437-2.112h-.054v6.5c0,.433-.217.7-.65.7s-.65-.271-.65-.7v-15.6a.658.658,0,0,1,.65-.758c.433,0,.6.217.6.7M199.148,92.8v16.574c0,.433-.217.7-.65.7s-.6-.271-.65-.7V92.8c0-.433.217-.7.65-.7s.65.271.65.7m5.254,10.4H214.53a5.117,5.117,0,0,0-10.129,0m10.562,1.192H204.347a4.879,4.879,0,0,0,5.254,4.658,5.188,5.188,0,0,0,4.171-1.9.646.646,0,0,1,.487-.271c.433,0,.65.271.65.7a.615.615,0,0,1-.162.433,6.634,6.634,0,0,1-5.146,2.221,6.98,6.98,0,0,1-4.821-1.733,6.256,6.256,0,0,1-1.787-4.6,6.654,6.654,0,0,1,.6-2.871,6.158,6.158,0,0,1,5.85-3.467c3.683,0,6.337,2.492,6.337,6.012a.8.8,0,0,1-.812.812m14.462,4.5a.7.7,0,0,1,.217.542c0,.379-.271.6-.7.65a.752.752,0,0,1-.542-.271l-4.658-5.091-4.712,5.146a.667.667,0,0,1-.542.271c-.433,0-.6-.271-.65-.65a.615.615,0,0,1,.162-.433l4.821-5.091-4.6-4.929a.776.776,0,0,1-.217-.542c0-.379.271-.6.7-.65a.752.752,0,0,1,.542.271l4.55,4.983,4.55-5.037a.749.749,0,0,1,.488-.271c.433,0,.6.271.65.65a.615.615,0,0,1-.163.433l-4.658,4.983,4.766,5.037Z" transform="translate(-45.209 -9.095)" fill="#010202"/>
    <g id="Group_1" data-name="Group 1" transform="translate(37.466 72.258)">
      <path id="Path_2" data-name="Path 2" d="M57.634,80.279l5.308-4.171L51.026,78.762Zm4.117.921,2-4.062-4.5,3.521C59.259,80.6,61.75,81.2,61.75,81.2Zm3.2.7V77.679l-1.9,3.792,1.9.433Zm3.792.867-2.492-5.091v4.5Zm-14.408.054,2-1.571-5.579-1.246,3.575,2.817Zm22.641,1.787-9.533-7.529L70.363,83.1l6.608,1.517Zm-25.187.217L53.3,83.637l-3.358-2.654,1.842,3.846ZM59.1,86.562l2.058-4.225-3.25-.7-2.6,2C55.359,83.691,59.1,86.562,59.1,86.562Zm13.108.271L76.7,85.8l-5.633-1.246C71.121,84.612,72.2,86.833,72.2,86.833Zm-23.453.379,2-1.571-2-4.062v5.633Zm17.5.975L70.9,87.158,69.5,84.233l-3.2-.7C66.246,83.529,66.246,88.187,66.246,88.187Zm-3.954.867,2.654-.6V83.2l-2.437-.542L60.18,87.429Zm11.32.7L76.971,87.1l-4.225.921Zm-14.624.054,1.679-.379-1.083-.867-.6,1.246Zm-4.279.975,2.654-.6,1.192-2.383L54.33,84.5,52.38,86.02Zm10.237.379V89.812l-1.354.325Zm-16.2.921,4.658-1.029L51.3,86.833l-2.6,2C48.751,88.891,48.751,92.087,48.751,92.087Zm-6.662.325L47.4,88.241V81.579L42.089,92.412Zm13.758.758.758-1.517-1.354.325Zm19.445,0,2.492-5.091L74.154,90.9l1.137,2.275Zm-32.39.217,4.5-1.029V89.866Zm25.457.433,4.225-3.3L71.5,88.3l-5.254,1.192v2.654C66.246,92.2,68.358,93.82,68.358,93.82ZM66.246,95.5l1.083-.867-1.083-.867V95.5ZM47.4,95.607v-1.9l-4.225.921,4.225.975Zm6.554,1.462,1.192-2.383L53.951,92.3,48.7,93.5v2.492Zm19.228.487,1.408-2.925-1.408-2.925-3.737,2.925,3.737,2.925ZM56.6,97.666l-.758-1.517-.6,1.192Zm5.362,1.192,2.979-2.329V92.791l-2.979-2.329-3.737.812-1.679,3.358,1.625,3.358,3.792.867Zm-14.57.6V96.962l-4.5-1.029Zm17.549.054V98.153l-1.354,1.029Zm14.029,1.137V88.62L76.05,94.632Zm-19.391.108,1.083-.867-1.679-.379Zm11.916.217,1.083-2.221-4.225-3.3-2.112,1.679v2.654C66.246,99.832,71.5,100.97,71.5,100.97Zm6.283.271-2.492-5.091-1.137,2.275Zm-.812.975-3.358-2.654-.812,1.679Zm-25.674.271,2.058-4.225L48.7,97.232v3.25C48.751,100.428,51.3,102.486,51.3,102.486Zm19.824,2.275,5.633-1.246-4.5-1.029C72.2,102.486,71.121,104.761,71.121,104.761Zm-16.791.054,4.225-3.3-1.192-2.383-2.654-.6L52.38,103.3l1.95,1.517Zm11.916,1.029,3.2-.7,1.408-2.925-4.658-1.029.054,4.658Zm-3.737.812,2.437-.542v-5.254l-2.654-.6-2.112,1.679,2.329,4.712Zm-4.55,1.029,3.2-.7L59.1,102.757l-3.737,2.925ZM47.4,107.74v-6.662l-5.308-4.171L47.4,107.74Zm1.3,0,2-4.062-2-1.571v5.633Zm1.192.542,3.358-2.654-1.517-1.192C51.784,104.49,49.888,108.282,49.888,108.282Zm.812,1.029,5.579-1.246-2-1.571Zm14.245,2.329v-4.225l-1.9.433Zm1.3,0,2.492-5.091-2.492.542Zm-2.492.6-2-4.062-2.492.542,4.5,3.521Zm3.683,0,9.587-7.475-6.608,1.462-2.979,6.012Zm-4.5.975-5.308-4.171L51.026,110.5Zm2.654,4.062a2.885,2.885,0,0,1-2.221-1.029,2.8,2.8,0,0,1-.6-1.733L50.647,111.8a2.116,2.116,0,0,1-.758.921,2.955,2.955,0,0,1-1.787.6,2.885,2.885,0,0,1-2.221-1.029,2.594,2.594,0,0,1-.6-2.058,2.765,2.765,0,0,1,1.029-1.842l-5.416-11a2.222,2.222,0,0,1-.6.054A2.885,2.885,0,0,1,38.08,96.42a2.76,2.76,0,0,1,.433-3.9,2.955,2.955,0,0,1,1.787-.6,2.032,2.032,0,0,1,.6.054l5.416-11a1.648,1.648,0,0,1-.433-.433,2.594,2.594,0,0,1-.6-2.058,2.649,2.649,0,0,1,1.029-1.842,2.955,2.955,0,0,1,1.787-.6,2.885,2.885,0,0,1,2.221,1.029l.325.487,12.133-2.708A2.668,2.668,0,0,1,63.863,72.7a2.955,2.955,0,0,1,1.787-.6,2.885,2.885,0,0,1,2.221,1.029,2.729,2.729,0,0,1,.325,2.925l9.75,7.637a2.8,2.8,0,0,1,1.733-.6A2.885,2.885,0,0,1,81.9,84.125a2.772,2.772,0,0,1-1.571,4.441v12.187a2.991,2.991,0,0,1,1.571.975,2.594,2.594,0,0,1,.6,2.058,2.649,2.649,0,0,1-1.029,1.842,2.955,2.955,0,0,1-1.787.6,2.8,2.8,0,0,1-1.733-.6l-9.75,7.637a2.867,2.867,0,0,1-2.6,4.008Z" transform="translate(-37.466 -72.1)" fill="#31a836"/>
    </g>
    <path id="Path_3" data-name="Path 3" d="M166.025,95.208a2.763,2.763,0,0,0-5.525,0,2.661,2.661,0,0,0,2.112,2.6v11.754c0,.433.217.7.65.7s.65-.271.65-.7V97.808a2.661,2.661,0,0,0,2.112-2.6" transform="translate(-56.393 -9.278)" fill="#31a836"/>
  </g>
</svg>
